<svg width="74" height="18" viewBox="0 0 74 18" fill="none" xmlns="http://www.w3.org/2000/svg">
<path d="M9.85938 5.79687C9.80729 5.22396 9.57552 4.77865 9.16406 4.46094C8.75781 4.13802 8.17708 3.97656 7.42188 3.97656C6.92188 3.97656 6.50521 4.04167 6.17188 4.17188C5.83854 4.30208 5.58854 4.48177 5.42188 4.71094C5.25521 4.9349 5.16927 5.19271 5.16406 5.48438C5.15365 5.72396 5.20052 5.9349 5.30469 6.11719C5.41406 6.29948 5.57031 6.46094 5.77344 6.60156C5.98177 6.73698 6.23177 6.85677 6.52344 6.96094C6.8151 7.0651 7.14323 7.15625 7.50781 7.23438L8.88281 7.54688C9.67448 7.71875 10.3724 7.94792 10.9766 8.23438C11.5859 8.52083 12.0964 8.86198 12.5078 9.25781C12.9245 9.65365 13.2396 10.1094 13.4531 10.625C13.6667 11.1406 13.776 11.7188 13.7813 12.3594C13.776 13.3698 13.5208 14.237 13.0156 14.9609C12.5104 15.6849 11.7839 16.2396 10.8359 16.625C9.89323 17.0104 8.75521 17.2031 7.42188 17.2031C6.08333 17.2031 4.91667 17.0026 3.92188 16.6016C2.92708 16.2005 2.15365 15.5911 1.60156 14.7734C1.04948 13.9557 0.765625 12.9219 0.75 11.6719H4.45313C4.48438 12.1875 4.6224 12.6172 4.86719 12.9609C5.11198 13.3047 5.44792 13.5651 5.875 13.7422C6.30729 13.9193 6.80729 14.0078 7.375 14.0078C7.89583 14.0078 8.33854 13.9375 8.70312 13.7969C9.07292 13.6563 9.35677 13.4609 9.55469 13.2109C9.7526 12.9609 9.85417 12.6745 9.85938 12.3516C9.85417 12.0495 9.76042 11.7917 9.57813 11.5781C9.39583 11.3594 9.11458 11.1719 8.73438 11.0156C8.35938 10.8542 7.88021 10.7057 7.29688 10.5703L5.625 10.1797C4.23958 9.86198 3.14844 9.34896 2.35156 8.64063C1.55469 7.92708 1.15885 6.96354 1.16406 5.75C1.15885 4.76042 1.42448 3.89323 1.96094 3.14844C2.4974 2.40365 3.23958 1.82292 4.1875 1.40625C5.13542 0.989584 6.21615 0.78125 7.42969 0.78125C8.66927 0.78125 9.74479 0.992187 10.6562 1.41406C11.5729 1.83073 12.2839 2.41667 12.7891 3.17188C13.2943 3.92708 13.5521 4.80208 13.5625 5.79687H9.85938Z" fill="black"/>
<path d="M15.7344 17V1H26.8906V4.14063H19.6016V7.42188H26.3203V10.5703H19.6016V13.8594H26.8906V17H15.7344Z" fill="black"/>
<path d="M33.1328 1V17H29.3125V1H33.1328Z" fill="black"/>
<path d="M39.3848 1V17H35.5645V1H39.3848Z" fill="black"/>
<path d="M56.918 9C56.918 10.7604 56.5794 12.2526 55.9023 13.4766C55.2253 14.7005 54.3086 15.6302 53.1523 16.2656C52.0013 16.901 50.7096 17.2188 49.2773 17.2188C47.8398 17.2188 46.5456 16.8984 45.3945 16.2578C44.2435 15.6172 43.3294 14.6875 42.6523 13.4688C41.9805 12.2448 41.6445 10.7552 41.6445 9C41.6445 7.23958 41.9805 5.7474 42.6523 4.52344C43.3294 3.29948 44.2435 2.36979 45.3945 1.73438C46.5456 1.09896 47.8398 0.78125 49.2773 0.78125C50.7096 0.78125 52.0013 1.09896 53.1523 1.73438C54.3086 2.36979 55.2253 3.29948 55.9023 4.52344C56.5794 5.7474 56.918 7.23958 56.918 9ZM52.9648 9C52.9648 7.95833 52.8164 7.07813 52.5195 6.35938C52.2279 5.64062 51.806 5.09635 51.2539 4.72656C50.707 4.35677 50.0482 4.17188 49.2773 4.17188C48.5117 4.17188 47.8529 4.35677 47.3008 4.72656C46.7487 5.09635 46.3242 5.64062 46.0273 6.35938C45.7357 7.07813 45.5898 7.95833 45.5898 9C45.5898 10.0417 45.7357 10.9219 46.0273 11.6406C46.3242 12.3594 46.7487 12.9036 47.3008 13.2734C47.8529 13.6432 48.5117 13.8281 49.2773 13.8281C50.0482 13.8281 50.707 13.6432 51.2539 13.2734C51.806 12.9036 52.2279 12.3594 52.5195 11.6406C52.8164 10.9219 52.9648 10.0417 52.9648 9Z" fill="black"/>
<path d="M73.6992 6.79688H69.793C69.7409 6.39583 69.6341 6.03385 69.4727 5.71094C69.3112 5.38802 69.0977 5.11198 68.832 4.88281C68.5664 4.65365 68.2513 4.47917 67.8867 4.35938C67.5273 4.23438 67.1289 4.17188 66.6914 4.17188C65.9154 4.17188 65.2461 4.36198 64.6836 4.74219C64.1263 5.1224 63.6966 5.67188 63.3945 6.39062C63.0977 7.10938 62.9492 7.97917 62.9492 9C62.9492 10.0625 63.1003 10.9531 63.4023 11.6719C63.7096 12.3854 64.1393 12.9245 64.6914 13.2891C65.2487 13.6484 65.9076 13.8281 66.668 13.8281C67.0951 13.8281 67.4831 13.7734 67.832 13.6641C68.1862 13.5547 68.4961 13.3958 68.7617 13.1875C69.0326 12.974 69.2539 12.7161 69.4258 12.4141C69.6029 12.1068 69.7253 11.7604 69.793 11.375L73.6992 11.3984C73.6315 12.1068 73.4258 12.8047 73.082 13.4922C72.7435 14.1797 72.2773 14.8073 71.6836 15.375C71.0898 15.9375 70.3659 16.3854 69.5117 16.7188C68.6628 17.0521 67.6888 17.2188 66.5898 17.2188C65.1419 17.2188 63.8451 16.901 62.6992 16.2656C61.5586 15.625 60.6576 14.6927 59.9961 13.4688C59.3346 12.2448 59.0039 10.7552 59.0039 9C59.0039 7.23958 59.3398 5.7474 60.0117 4.52344C60.6836 3.29948 61.5924 2.36979 62.7383 1.73438C63.8841 1.09896 65.168 0.78125 66.5898 0.78125C67.5586 0.78125 68.4544 0.916667 69.2773 1.1875C70.1003 1.45312 70.8242 1.84375 71.4492 2.35937C72.0742 2.86979 72.582 3.4974 72.9727 4.24219C73.3633 4.98698 73.6055 5.83854 73.6992 6.79688Z" fill="black"/>
</svg>
