<svg width="194" height="22" viewBox="0 0 194 22" fill="none" xmlns="http://www.w3.org/2000/svg">
<path d="M0.769886 21V0.636363H5.07528V17.4503H13.8054V21H0.769886ZM34.5767 10.8182C34.5767 13.0388 34.1558 14.928 33.3139 16.4858C32.4787 18.0436 31.3385 19.2334 29.8935 20.0554C28.455 20.8707 26.8376 21.2784 25.0412 21.2784C23.2315 21.2784 21.6075 20.8674 20.169 20.0455C18.7306 19.2235 17.5938 18.0336 16.7585 16.4759C15.9233 14.9181 15.5057 13.0322 15.5057 10.8182C15.5057 8.59754 15.9233 6.70833 16.7585 5.15057C17.5938 3.5928 18.7306 2.40625 20.169 1.59091C21.6075 0.768939 23.2315 0.357954 25.0412 0.357954C26.8376 0.357954 28.455 0.768939 29.8935 1.59091C31.3385 2.40625 32.4787 3.5928 33.3139 5.15057C34.1558 6.70833 34.5767 8.59754 34.5767 10.8182ZM30.2116 10.8182C30.2116 9.37973 29.9962 8.16667 29.5653 7.17898C29.1411 6.19129 28.5412 5.44224 27.7656 4.93182C26.9901 4.4214 26.0819 4.16619 25.0412 4.16619C24.0005 4.16619 23.0923 4.4214 22.3168 4.93182C21.5412 5.44224 20.938 6.19129 20.5071 7.17898C20.0829 8.16667 19.8707 9.37973 19.8707 10.8182C19.8707 12.2566 20.0829 13.4697 20.5071 14.4574C20.938 15.4451 21.5412 16.1941 22.3168 16.7045C23.0923 17.215 24.0005 17.4702 25.0412 17.4702C26.0819 17.4702 26.9901 17.215 27.7656 16.7045C28.5412 16.1941 29.1411 15.4451 29.5653 14.4574C29.9962 13.4697 30.2116 12.2566 30.2116 10.8182ZM51.2688 7.21875C51.1296 6.73485 50.9341 6.30729 50.6822 5.93608C50.4303 5.55824 50.122 5.24006 49.7575 4.98153C49.3995 4.71638 48.9885 4.5142 48.5245 4.375C48.0671 4.2358 47.56 4.16619 47.0032 4.16619C45.9625 4.16619 45.0477 4.42472 44.2589 4.94176C43.4767 5.45881 42.8668 6.21117 42.4293 7.19886C41.9918 8.17992 41.7731 9.37973 41.7731 10.7983C41.7731 12.2169 41.9885 13.4233 42.4194 14.4176C42.8503 15.4119 43.4601 16.1709 44.2489 16.6946C45.0378 17.2116 45.9691 17.4702 47.043 17.4702C48.0174 17.4702 48.8493 17.2978 49.5387 16.9531C50.2347 16.6018 50.765 16.108 51.1296 15.4716C51.5008 14.8352 51.6864 14.0829 51.6864 13.2145L52.5614 13.3438H47.3114V10.1023H55.8327V12.6676C55.8327 14.4574 55.4549 15.9953 54.6992 17.2812C53.9435 18.5606 52.9028 19.5483 51.5771 20.2443C50.2513 20.9337 48.7333 21.2784 47.0231 21.2784C45.114 21.2784 43.4369 20.8575 41.9918 20.0156C40.5468 19.1671 39.4199 17.964 38.6112 16.4062C37.8091 14.8419 37.408 12.9858 37.408 10.8381C37.408 9.1875 37.6467 7.71591 38.1239 6.42329C38.6078 5.12405 39.284 4.02367 40.1523 3.12216C41.0207 2.22064 42.0316 1.53456 43.185 1.06392C44.3384 0.593276 45.5879 0.357954 46.9336 0.357954C48.087 0.357954 49.1609 0.526988 50.1552 0.865057C51.1495 1.1965 52.0311 1.66714 52.8001 2.27699C53.5756 2.88684 54.2087 3.61269 54.6992 4.45454C55.1897 5.28977 55.5046 6.21117 55.6438 7.21875H51.2688ZM77.7798 10.8182C77.7798 13.0388 77.3589 14.928 76.517 16.4858C75.6818 18.0436 74.5417 19.2334 73.0966 20.0554C71.6581 20.8707 70.0407 21.2784 68.2443 21.2784C66.4347 21.2784 64.8106 20.8674 63.3722 20.0455C61.9337 19.2235 60.7969 18.0336 59.9616 16.4759C59.1264 14.9181 58.7088 13.0322 58.7088 10.8182C58.7088 8.59754 59.1264 6.70833 59.9616 5.15057C60.7969 3.5928 61.9337 2.40625 63.3722 1.59091C64.8106 0.768939 66.4347 0.357954 68.2443 0.357954C70.0407 0.357954 71.6581 0.768939 73.0966 1.59091C74.5417 2.40625 75.6818 3.5928 76.517 5.15057C77.3589 6.70833 77.7798 8.59754 77.7798 10.8182ZM73.4148 10.8182C73.4148 9.37973 73.1993 8.16667 72.7685 7.17898C72.3442 6.19129 71.7443 5.44224 70.9688 4.93182C70.1932 4.4214 69.285 4.16619 68.2443 4.16619C67.2036 4.16619 66.2955 4.4214 65.5199 4.93182C64.7443 5.44224 64.1411 6.19129 63.7102 7.17898C63.286 8.16667 63.0739 9.37973 63.0739 10.8182C63.0739 12.2566 63.286 13.4697 63.7102 14.4574C64.1411 15.4451 64.7443 16.1941 65.5199 16.7045C66.2955 17.215 67.2036 17.4702 68.2443 17.4702C69.285 17.4702 70.1932 17.215 70.9688 16.7045C71.7443 16.1941 72.3442 15.4451 72.7685 14.4574C73.1993 13.4697 73.4148 12.2566 73.4148 10.8182ZM80.9691 21V0.636363H85.2745V9.03835H94.0146V0.636363H98.31V21H94.0146V12.5881H85.2745V21H80.9691ZM120.573 10.8182C120.573 13.0388 120.152 14.928 119.31 16.4858C118.475 18.0436 117.335 19.2334 115.89 20.0554C114.451 20.8707 112.834 21.2784 111.037 21.2784C109.228 21.2784 107.604 20.8674 106.165 20.0455C104.727 19.2235 103.59 18.0336 102.755 16.4759C101.919 14.9181 101.502 13.0322 101.502 10.8182C101.502 8.59754 101.919 6.70833 102.755 5.15057C103.59 3.5928 104.727 2.40625 106.165 1.59091C107.604 0.768939 109.228 0.357954 111.037 0.357954C112.834 0.357954 114.451 0.768939 115.89 1.59091C117.335 2.40625 118.475 3.5928 119.31 5.15057C120.152 6.70833 120.573 8.59754 120.573 10.8182ZM116.208 10.8182C116.208 9.37973 115.992 8.16667 115.561 7.17898C115.137 6.19129 114.537 5.44224 113.762 4.93182C112.986 4.4214 112.078 4.16619 111.037 4.16619C109.997 4.16619 109.088 4.4214 108.313 4.93182C107.537 5.44224 106.934 6.19129 106.503 7.17898C106.079 8.16667 105.867 9.37973 105.867 10.8182C105.867 12.2566 106.079 13.4697 106.503 14.4574C106.934 15.4451 107.537 16.1941 108.313 16.7045C109.088 17.215 109.997 17.4702 111.037 17.4702C112.078 17.4702 112.986 17.215 113.762 16.7045C114.537 16.1941 115.137 15.4451 115.561 14.4574C115.992 13.4697 116.208 12.2566 116.208 10.8182ZM123.762 21V0.636363H128.067V17.4503H136.798V21H123.762ZM146.868 21H139.649V0.636363H146.927C148.975 0.636363 150.739 1.04403 152.217 1.85938C153.695 2.66809 154.832 3.83144 155.627 5.34943C156.43 6.86742 156.831 8.68371 156.831 10.7983C156.831 12.9195 156.43 14.7424 155.627 16.267C154.832 17.7917 153.689 18.9616 152.197 19.777C150.712 20.5923 148.936 21 146.868 21ZM143.954 17.3111H146.689C147.961 17.3111 149.032 17.0857 149.9 16.6349C150.775 16.1776 151.431 15.4716 151.869 14.517C152.313 13.5559 152.535 12.3163 152.535 10.7983C152.535 9.29356 152.313 8.06392 151.869 7.10938C151.431 6.15483 150.779 5.45218 149.91 5.00142C149.042 4.55066 147.971 4.32528 146.699 4.32528H143.954V17.3111ZM160.02 21V0.636363H173.741V4.18608H164.325V9.03835H173.036V12.5881H164.325V17.4503H173.781V21H160.02ZM177.164 21V0.636363H185.199C186.736 0.636363 188.049 0.911458 189.136 1.46165C190.23 2.00521 191.062 2.77746 191.632 3.77841C192.208 4.77273 192.497 5.94271 192.497 7.28835C192.497 8.64062 192.205 9.80398 191.622 10.7784C191.038 11.7462 190.193 12.4886 189.086 13.0057C187.986 13.5227 186.654 13.7812 185.089 13.7812H179.71V10.321H184.393C185.215 10.321 185.898 10.2083 186.441 9.98295C186.985 9.75758 187.389 9.41951 187.654 8.96875C187.926 8.51799 188.062 7.95786 188.062 7.28835C188.062 6.61222 187.926 6.04214 187.654 5.57812C187.389 5.11411 186.982 4.76278 186.431 4.52415C185.888 4.27888 185.202 4.15625 184.373 4.15625H181.47V21H177.164ZM188.162 11.733L193.223 21H188.47L183.518 11.733H188.162Z" fill="black"/>
</svg>
